<svg width="402" height="306" viewBox="0 0 402 306" fill="none" xmlns="http://www.w3.org/2000/svg">
<g clip-path="url(#clip0_10_3103)">
<path opacity="0.18" d="M356.728 203.411C351.48 182.779 337 165.308 332.408 144.516C328.241 125.613 332.648 105.989 332.528 86.6378C332.36 59.6785 322.129 31.5832 300.417 15.5596C279.258 -0.0799832 250.819 -2.03993 224.731 1.48798C198.644 5.01588 173.341 13.3277 147.133 16.0396C135.198 17.2796 122.974 17.3756 111.598 21.2075C92.4387 27.6713 78.2631 43.8469 66.7994 60.4944C58.6556 72.3021 51.2478 84.9818 48.2639 99.0054C42.04 128.317 55.8797 158.204 55.4637 188.123C55.2717 202.267 51.8958 216.45 53.9837 230.434C57.5996 254.697 77.1191 273.849 98.6786 285.569C128.71 301.904 163.805 307.168 197.972 305.768C254.898 303.4 378.871 290.544 356.728 203.411Z" fill="#7EBAFF"/>
<path d="M114.518 263.961C114.342 263.847 114.189 263.699 114.07 263.526C113.951 263.352 113.867 263.157 113.823 262.951C113.779 262.745 113.776 262.533 113.814 262.326C113.853 262.119 113.932 261.922 114.046 261.745L177.245 163.924L179.933 165.668L116.734 263.489C116.62 263.666 116.472 263.818 116.299 263.938C116.125 264.057 115.93 264.141 115.724 264.185C115.519 264.229 115.306 264.232 115.099 264.193C114.892 264.155 114.695 264.076 114.518 263.961Z" fill="#7EBAFF"/>
<path opacity="0.18" d="M185.524 268.121C151.069 268.553 120.102 266.473 85.8789 269.073C96.5506 273.201 112.702 279.401 125.078 280.273C180.116 284.272 235.611 285.608 290.962 284.32C294.721 284.232 298.657 284.104 301.897 282.873C305.137 281.641 307.353 278.921 305.777 276.713C301.289 270.449 267.546 269.761 258.178 269.857C236.259 270.097 207.412 267.849 185.524 268.121Z" fill="#7EBAFF"/>
<path d="M173.485 258.449C173.149 259.657 172.861 261.001 173.485 262.105C174.229 263.417 176.077 263.865 177.605 263.497C179.133 263.129 180.757 262.433 181.509 261.097C184.669 255.497 192.46 241.618 196.876 231.938C198.116 229.218 200.916 227.938 198.764 225.794C193.452 220.49 184.677 228.874 183.029 233.45C180.005 241.858 175.845 249.77 173.485 258.449Z" fill="url(#paint0_linear_10_3103)"/>
<path d="M256.915 268.257C258.307 269.233 259.251 264.497 260.811 263.801C263.499 262.601 258.931 232.602 257.171 229.314C253.723 222.914 243.419 221.314 243.851 231.25C243.979 235.114 255.483 267.273 256.915 268.257Z" fill="url(#paint1_linear_10_3103)"/>
<path d="M223.315 129.612C219.475 131.124 216.484 134.228 213.988 137.508C200.908 154.7 198.428 178.243 185.124 195.267C181.708 199.643 177.549 203.643 175.645 208.866C172.077 218.642 179.045 230.802 189.292 232.658C192.78 233.298 196.548 232.914 199.692 234.498C202.836 236.082 204.764 239.202 207.436 241.434C215.196 247.929 227.547 245.265 235.155 238.586C238.075 236.018 240.755 232.834 244.475 231.73C249.275 230.306 254.563 232.778 259.474 231.666C265.018 230.418 268.706 224.754 269.306 219.106C269.906 213.458 268.042 207.858 265.882 202.611C259.562 187.251 250.387 172.635 248.531 156.132C247.731 148.932 249.331 137.132 244.323 131.084C240.267 126.093 228.619 127.533 223.315 129.612Z" fill="#7EBAFF"/>
<path d="M246.067 144.036C245.523 146.356 244.243 148.836 241.915 149.412C239.803 149.916 237.507 148.612 235.475 149.364C232.603 150.428 232.403 154.628 229.963 156.484C228.635 157.492 226.875 157.636 225.275 158.084C221.227 159.236 218.123 162.404 215.212 165.444C214.084 161.444 216.884 157.564 218.459 153.732C220.316 149.173 220.506 144.105 218.995 139.42C218.555 138.311 218.233 137.158 218.035 135.98C217.945 135.388 218 134.783 218.197 134.217C218.393 133.65 218.725 133.141 219.163 132.732C219.77 132.313 220.466 132.039 221.195 131.932C224.621 131.227 228.15 131.176 231.595 131.78C233.883 132.33 236.198 132.763 238.531 133.076C241.363 133.3 243.043 132.148 245.467 131.252C246.779 135.388 246.986 139.796 246.067 144.036Z" fill="url(#paint2_linear_10_3103)"/>
<path d="M169.373 259.481C168.586 260.592 167.898 261.77 167.317 263.001C166.906 263.73 166.724 264.567 166.797 265.401C167.081 266.392 167.701 267.254 168.549 267.841C170.82 269.709 173.26 271.361 175.837 272.777C179.181 274.673 182.788 276.377 186.684 276.681C188.659 276.944 190.663 276.514 192.356 275.465C193.956 274.337 194.756 272.153 193.86 270.489C192.964 268.825 190.612 268.241 188.796 267.289C183.78 264.769 175.317 251.049 169.373 259.481Z" fill="#3E3E54"/>
<path d="M256.043 264.873C255.489 265.172 255.021 265.607 254.683 266.137C254.405 266.721 254.276 267.364 254.307 268.009C254.301 269.907 254.702 271.783 255.483 273.513C255.701 274.091 256.075 274.598 256.563 274.977C257.028 275.246 257.547 275.41 258.083 275.457C262.81 276.177 267.634 275.817 272.402 275.457C274.354 275.305 276.522 275.049 277.754 273.537C278.281 272.788 278.565 271.893 278.565 270.977C278.565 270.061 278.281 269.167 277.754 268.417C276.662 266.93 275.047 265.913 273.234 265.569C271.562 265.193 269.69 265.633 268.09 265.201C266.834 264.865 265.73 263.881 264.378 263.561C261.535 262.895 258.544 263.366 256.043 264.873Z" fill="#3E3E54"/>
<path d="M187.804 128.245C186.964 132.365 186.692 136.613 185.452 140.628C184.124 144.932 181.685 148.996 181.573 153.492C181.479 154.246 181.676 155.007 182.124 155.62C184.124 157.828 189.94 153.468 191.036 151.756C192.284 149.828 192.796 147.532 193.284 145.284L196.74 129.493C197.316 126.845 197.94 123.989 199.62 121.789C201.22 119.749 216.692 102.077 215.868 99.2135C214.508 94.4136 194.588 111.621 192.412 114.565C189.9 117.949 188.62 124.245 187.804 128.245Z" fill="url(#paint3_linear_10_3103)"/>
<path d="M216.692 88.4217C215.172 94.5255 215.892 100.933 216.364 107.213C216.924 114.248 217.223 121.293 217.26 128.349C217.26 132.349 217.348 136.756 219.972 139.788C223.572 143.948 230.132 143.5 235.435 142.012C237.369 141.578 239.197 140.762 240.811 139.612C244.299 136.836 245.035 131.917 245.419 127.469C246.483 114.909 246.731 102.294 246.163 89.7017C245.795 81.6539 242.811 70.5902 232.443 71.3501C225.148 71.8621 218.276 82.1178 216.692 88.4217Z" fill="#7EBAFF"/>
<path d="M245.411 127.445C245.035 131.885 244.307 136.812 240.811 139.588C239.195 140.74 237.364 141.556 235.427 141.988C230.131 143.476 223.571 143.924 219.972 139.756C217.348 136.732 217.276 132.333 217.26 128.325C217.26 124.029 217.124 119.741 216.9 115.445C216.766 112.682 216.59 109.93 216.372 107.189C215.868 100.917 215.172 94.5015 216.7 88.4057C217.852 83.7658 221.875 77.006 226.811 73.5341C228.44 72.2941 230.376 71.5223 232.411 71.3021C242.811 70.5022 245.763 81.6059 246.131 89.6617C246.712 102.258 246.472 114.879 245.411 127.445Z" fill="url(#paint4_linear_10_3103)"/>
<path d="M232.683 76.774C231.461 79.683 229.918 82.4467 228.083 85.0138C227.175 86.1461 226.442 87.4081 225.907 88.7577C225.519 90.373 225.429 92.0459 225.643 93.6935C226.099 100.893 225.219 108.973 219.868 113.853C219.045 114.65 218.017 115.203 216.9 115.453C216.766 112.69 216.59 109.938 216.372 107.197C215.868 100.925 215.172 94.5095 216.7 88.4137C217.852 83.7738 221.875 77.014 226.811 73.5421C227.611 73.4621 228.411 73.4141 229.163 73.4061C232.571 73.4061 234.147 73.1981 232.683 76.774Z" fill="url(#paint5_linear_10_3103)"/>
<path d="M249.587 35.6391C250.227 40.023 250.843 47.5668 251.299 51.9667C251.515 54.0867 251.691 56.3586 250.675 58.2386C249.894 59.565 248.72 60.616 247.315 61.2465C245.906 61.8656 244.444 62.3582 242.947 62.7184C241.675 63.0784 240.299 63.5184 239.579 64.6624C239.13 65.5172 238.907 66.4729 238.931 67.4383L238.675 71.6782C238.603 72.8942 237.387 74.0781 236.275 74.5341C235.116 74.9303 233.859 74.9303 232.699 74.5341C231.666 74.2588 230.728 73.7054 229.988 72.9342C229.121 71.8137 228.608 70.4599 228.516 69.0463C228.17 65.7608 228.335 62.4417 229.004 59.2065C229.273 57.6195 229.653 56.0531 230.14 54.5186C230.604 53.1107 231.203 51.7427 231.803 50.3748C232.437 48.8138 233.222 47.3187 234.147 45.9109C235.333 44.3547 236.691 42.9377 238.195 41.687C239.661 40.2243 241.342 38.9941 243.179 38.0391C245.259 37.0631 247.867 34.0552 249.587 35.6391Z" fill="url(#paint6_linear_10_3103)"/>
<path d="M259.859 26.4154C254.651 31.6472 248.499 35.8311 242.395 40.015C239.555 41.943 236.707 43.8789 233.715 45.5589C225.081 50.3531 215.467 53.1164 205.604 53.6387C205.148 52.5667 206.636 51.5267 207.684 51.0147L217.508 46.2148C217.953 46.0502 218.35 45.7749 218.66 45.4149C219 44.7762 219.078 44.0299 218.876 43.3349C218.22 39.279 217.084 34.9031 218.876 31.2152C220.324 28.2713 223.324 26.4794 226.196 24.8954C228.595 23.5594 231.315 22.2235 234.011 22.7915C236.707 23.3594 238.603 25.6474 240.187 27.8793C240.53 28.4661 241.014 28.9582 241.595 29.3113C242.02 29.4932 242.477 29.5857 242.939 29.5833C249.203 29.8473 254.435 25.1594 260.267 22.8875C260.655 22.6936 261.095 22.6291 261.523 22.7035C262.611 23.0155 262.411 24.7354 261.579 25.5114C260.747 26.2874 260.659 25.6074 259.859 26.4154Z" fill="#7EBAFF"/>
<path d="M261.603 25.4872C260.803 26.2872 260.667 25.6072 259.859 26.4072C254.643 31.6471 248.499 35.831 242.387 40.0068C239.547 41.9348 236.715 43.8627 233.715 45.5507C225.078 50.3392 215.466 53.1046 205.604 53.6385C205.148 52.5585 206.636 51.5105 207.684 51.0066L217.508 46.2067C217.95 46.0351 218.345 45.7609 218.66 45.4067C219.004 44.7663 219.082 44.016 218.876 43.3188C218.22 39.2629 217.084 34.887 218.876 31.1991C220.316 28.2552 223.316 26.4632 226.196 24.8792C228.595 23.5433 231.299 22.2073 234.003 22.7833C236.707 23.3593 238.603 25.6312 240.179 27.8632C240.525 28.4483 241.008 28.94 241.587 29.2951C241.767 29.3767 241.954 29.4384 242.147 29.4791C242.41 29.5335 242.678 29.5629 242.947 29.5671C248.595 29.8071 253.419 25.9992 258.603 23.5913C259.155 23.3273 259.715 23.0953 260.275 22.8713C260.657 22.6776 261.092 22.613 261.515 22.6873C262.643 23.0073 262.435 24.7032 261.603 25.4872Z" fill="url(#paint7_linear_10_3103)"/>
<path d="M245.387 43.0069C241.126 45.9411 238.194 50.4367 237.227 55.5185C236.747 58.1025 236.803 60.7584 236.347 63.3423C235.824 66.2069 234.698 68.9274 233.042 71.3232C231.387 73.7189 229.241 75.7352 226.747 77.238C224.811 78.3819 222.627 79.2459 221.147 80.9419C219.667 82.6378 219.027 85.1978 218.563 87.5497C217.107 94.9415 215.78 102.749 211.14 108.677C207.855 112.914 203.103 115.767 197.82 116.677C195.197 117.099 192.516 116.98 189.94 116.328C187.365 115.676 184.95 114.504 182.844 112.885C179.373 110.028 176.876 106.161 175.701 101.821C173.941 95.6775 174.901 88.2217 180.012 84.2938C182.399 82.6093 185.202 81.6106 188.116 81.4059C189.86 81.2299 191.876 81.1099 192.916 79.6939C193.35 78.9598 193.623 78.1417 193.716 77.294C194.224 74.7739 194.944 72.3012 195.868 69.9022C196.564 68.0862 197.468 66.2223 199.068 65.1023C200.668 63.9823 202.876 63.8943 204.836 63.3903C208.065 62.5432 210.858 60.5129 212.66 57.7025C214.764 54.3746 217.651 53.7586 220.851 51.4706C221.906 50.6901 223.025 49.9997 224.195 49.4067C225.596 48.7603 227.046 48.2253 228.531 47.8067C234.411 45.9668 240.707 41.6389 245.723 38.063C245.715 39.007 245.411 42.0629 245.387 43.0069Z" fill="#3E3E54"/>
<path d="M245.387 43.0069C241.126 45.9411 238.194 50.4367 237.227 55.5185C236.747 58.1025 236.803 60.7584 236.347 63.3423C235.824 66.2069 234.698 68.9274 233.042 71.3232C231.387 73.7189 229.241 75.7352 226.747 77.238C224.811 78.3819 222.627 79.2459 221.147 80.9419C219.667 82.6378 219.027 85.1978 218.563 87.5497C217.107 94.9415 215.78 102.749 211.14 108.677C207.855 112.914 203.103 115.767 197.82 116.677C195.197 117.099 192.516 116.98 189.94 116.328C187.365 115.676 184.95 114.504 182.844 112.885C179.373 110.028 176.876 106.161 175.701 101.821C173.941 95.6775 174.901 88.2217 180.012 84.2938C182.399 82.6093 185.202 81.6106 188.116 81.4059C189.86 81.2299 191.876 81.1099 192.916 79.6939C193.35 78.9598 193.623 78.1417 193.716 77.294C194.224 74.7739 194.944 72.3012 195.868 69.9022C196.564 68.0862 197.468 66.2223 199.068 65.1023C200.668 63.9823 202.876 63.8943 204.836 63.3903C208.065 62.5432 210.858 60.5129 212.66 57.7025C214.764 54.3746 217.651 53.7586 220.851 51.4706C221.906 50.6901 223.025 49.9997 224.195 49.4067C225.596 48.7603 227.046 48.2253 228.531 47.8067C234.411 45.9668 240.707 41.6389 245.723 38.063C245.715 39.007 245.411 42.0629 245.387 43.0069Z" fill="url(#paint8_linear_10_3103)"/>
<path d="M234.291 75.062C232.691 77.1979 232.475 80.0778 233.011 82.6778C233.678 85.2453 234.695 87.7086 236.035 89.9976L250.987 118.389C255.659 127.245 260.499 136.332 268.067 142.884C270.514 144.994 273.198 146.812 276.066 148.3C276.626 148.571 277.161 148.889 277.666 149.252C278.922 150.236 279.562 151.78 280.434 153.116C281.874 155.228 283.934 156.843 286.329 157.737C288.724 158.631 291.338 158.76 293.81 158.108C294.386 156.028 292.97 153.932 291.41 152.452C289.85 150.972 287.97 149.636 287.218 147.612C287.258 147.776 287.33 147.93 287.429 148.067C287.529 148.203 287.654 148.318 287.799 148.405C287.943 148.493 288.103 148.552 288.269 148.577C288.436 148.603 288.606 148.596 288.77 148.556C288.934 148.516 289.088 148.444 289.224 148.345C289.361 148.245 289.476 148.12 289.563 147.976C289.651 147.831 289.709 147.672 289.735 147.505C289.761 147.338 289.754 147.168 289.714 147.004C289.552 146.575 289.275 146.199 288.914 145.916C287.869 144.809 286.692 143.834 285.41 143.012C284.042 142.212 282.498 141.78 281.138 140.988C279.537 139.97 278.124 138.681 276.962 137.18C273.873 133.512 271.175 129.53 268.915 125.301C266.915 121.581 265.251 117.661 262.947 114.101C260.891 110.901 258.323 108.069 256.643 104.677C253.635 98.6374 253.715 91.5495 251.651 85.1257C250.435 81.3258 248.003 75.67 244.547 73.35C241.435 71.2941 236.491 72.0701 234.291 75.062Z" fill="url(#paint9_linear_10_3103)"/>
<path d="M252.451 44.4229C252.641 44.4153 252.829 44.4686 252.987 44.5749C253.106 44.7004 253.184 44.8596 253.211 45.0309C253.461 46.0208 253.544 47.0454 253.459 48.0628C253.387 48.9908 252.923 50.1187 251.995 50.1107C251.614 50.0818 251.254 49.927 250.971 49.6708C249.851 48.7748 249.371 47.1268 248.755 45.8309C248.755 45.7909 241.675 46.9508 241.083 47.0548C239.723 47.2788 239.075 47.5748 240.051 46.6708C242.875 44.0309 248.779 44.2149 252.451 44.4229Z" fill="#3E3E54"/>
<path d="M183.172 153.86L175.725 164.54L179.725 167.428L187.164 157.604C186.604 156.188 184.188 153.836 183.172 153.86Z" fill="#7EBAFF"/>
<path d="M183.172 153.86L175.725 164.54L179.725 167.428L187.164 157.604C186.604 156.188 184.188 153.836 183.172 153.86Z" fill="#3E3E54"/>
<path d="M154.389 199.003L143.013 192.947C140.026 191.348 136.54 190.95 133.269 191.835C129.998 192.72 127.188 194.82 125.414 197.707L99.1105 240.346C97.9534 242.226 97.5833 244.487 98.0804 246.638C98.5774 248.79 99.9016 250.659 101.766 251.841L115.094 260.185L154.389 199.003Z" fill="#3E3E54"/>
<path d="M112.438 268.297C114.899 268.297 116.894 266.302 116.894 263.841C116.894 261.38 114.899 259.385 112.438 259.385C109.977 259.385 107.982 261.38 107.982 263.841C107.982 266.302 109.977 268.297 112.438 268.297Z" fill="#3E3E54"/>
<path d="M112.43 265.633C113.553 265.633 114.462 264.723 114.462 263.601C114.462 262.479 113.553 261.569 112.43 261.569C111.308 261.569 110.398 262.479 110.398 263.601C110.398 264.723 111.308 265.633 112.43 265.633Z" fill="#7EBAFF"/>
<path d="M187.02 157.436C189.145 157.436 190.868 155.713 190.868 153.588C190.868 151.463 189.145 149.74 187.02 149.74C184.895 149.74 183.172 151.463 183.172 153.588C183.172 155.713 184.895 157.436 187.02 157.436Z" fill="#7EBAFF"/>
<path d="M258.627 23.5835C258.528 23.9883 258.339 24.3657 258.075 24.6875C256.271 26.8307 254.229 28.7605 251.987 30.4393C248.051 33.6392 244.099 36.8392 239.987 39.7991C233.467 44.471 225.987 48.6548 217.972 48.3188C218.847 47.1812 219.807 46.1115 220.844 45.1189C221.534 44.413 222.323 43.8119 223.188 43.335C224.08 42.9387 225.003 42.615 225.947 42.367C230.307 41.007 234.115 38.2871 237.659 35.3912C238.771 35.3912 240.931 32.1913 241.363 31.2953C241.795 30.3993 241.923 29.8713 242.163 29.4393C242.426 29.4937 242.694 29.5232 242.963 29.5273C248.619 29.7993 253.443 25.9914 258.627 23.5835Z" fill="url(#paint10_linear_10_3103)"/>
<path d="M211.38 174.204C213.556 169.404 216.012 164.684 217.484 159.612C218.956 154.54 219.388 148.988 217.484 144.06C210.78 153.38 208.252 164.956 204.924 175.939C201.596 186.923 196.836 198.275 187.404 204.827C183.724 207.379 179.165 209.427 177.533 213.626C175.901 217.826 177.965 222.594 181.309 225.498C184.652 228.402 189.028 229.762 193.308 230.922C197.588 232.082 201.988 233.162 205.652 235.642C208.764 237.754 211.308 240.85 214.884 242.042C220.716 243.962 226.755 240.122 231.627 236.362C234.547 234.106 237.755 231.026 237.083 227.402C234.479 228.876 231.455 229.428 228.498 228.971C225.541 228.514 222.825 227.073 220.788 224.882C216.788 220.314 216.484 213.682 216.132 207.587C215.69 199.922 214.798 192.291 213.46 184.731C209.316 190.507 208.852 198.043 208.532 205.147L207.988 217.402C207.852 220.362 208.58 226.05 206.388 228.386C202.004 233.114 199.1 223.938 199.052 220.586C198.892 205.259 205.156 187.891 211.38 174.204Z" fill="url(#paint11_linear_10_3103)"/>
<path d="M228.188 187.547C229.939 196.547 233.403 205.195 234.587 214.29C235.115 218.37 235.595 223.194 239.163 225.242C240.262 225.797 241.438 226.182 242.651 226.386C247.939 227.53 253.715 228.618 258.555 226.194C264.227 223.346 266.739 215.522 263.771 209.906L261.307 216.354C261.011 217.114 260.635 217.954 259.859 218.218C258.547 218.658 257.499 217.106 256.979 215.818L251.379 201.987C248.859 206.163 252.059 211.378 252.243 216.258C252.326 217.089 252.156 217.926 251.755 218.658C250.843 220.106 248.651 220.258 247.171 219.378C245.691 218.498 244.771 216.978 243.971 215.474C234.581 198.146 230.778 178.338 233.083 158.764C233.379 156.364 233.763 153.876 233.387 151.46C233.035 149.228 231.787 146.508 229.572 145.692C229.26 148.692 229.827 151.732 229.363 154.748C228.852 158.004 227.932 161.148 227.508 164.452C226.501 172.137 226.73 179.934 228.188 187.547Z" fill="url(#paint12_linear_10_3103)"/>
</g>
<defs>
<linearGradient id="paint0_linear_10_3103" x1="173.117" y1="243.858" x2="199.548" y2="243.858" gradientUnits="userSpaceOnUse">
<stop stop-color="#E5C5D5"/>
<stop offset="0.42" stop-color="#EAD4D1"/>
<stop offset="1" stop-color="#F0E9CB"/>
</linearGradient>
<linearGradient id="paint1_linear_10_3103" x1="5683.65" y1="13895.4" x2="6079.71" y2="13895.4" gradientUnits="userSpaceOnUse">
<stop stop-color="#E5C5D5"/>
<stop offset="0.42" stop-color="#EAD4D1"/>
<stop offset="1" stop-color="#F0E9CB"/>
</linearGradient>
<linearGradient id="paint2_linear_10_3103" x1="213.164" y1="132.556" x2="299.817" y2="212.33" gradientUnits="userSpaceOnUse">
<stop stop-opacity="0"/>
<stop offset="0.99"/>
</linearGradient>
<linearGradient id="paint3_linear_10_3103" x1="8006.73" y1="9377.52" x2="9481.01" y2="9377.52" gradientUnits="userSpaceOnUse">
<stop stop-color="#E5C5D5"/>
<stop offset="0.42" stop-color="#EAD4D1"/>
<stop offset="1" stop-color="#F0E9CB"/>
</linearGradient>
<linearGradient id="paint4_linear_10_3103" x1="224.243" y1="107.181" x2="254.939" y2="107.181" gradientUnits="userSpaceOnUse">
<stop offset="0.02" stop-color="white" stop-opacity="0"/>
<stop offset="0.58" stop-color="white" stop-opacity="0.39"/>
<stop offset="0.68" stop-color="white" stop-opacity="0.68"/>
<stop offset="1" stop-color="white"/>
</linearGradient>
<linearGradient id="paint5_linear_10_3103" x1="5465.19" y1="6780.24" x2="2401.6" y2="4045.62" gradientUnits="userSpaceOnUse">
<stop stop-opacity="0"/>
<stop offset="0.99"/>
</linearGradient>
<linearGradient id="paint6_linear_10_3103" x1="6846.6" y1="2810.7" x2="7517.23" y2="2810.7" gradientUnits="userSpaceOnUse">
<stop stop-color="#E5C5D5"/>
<stop offset="0.42" stop-color="#EAD4D1"/>
<stop offset="1" stop-color="#F0E9CB"/>
</linearGradient>
<linearGradient id="paint7_linear_10_3103" x1="17633.1" y1="2131.39" x2="16810.2" y2="68.9234" gradientUnits="userSpaceOnUse">
<stop offset="0.02" stop-color="white" stop-opacity="0"/>
<stop offset="0.58" stop-color="white" stop-opacity="0.39"/>
<stop offset="0.68" stop-color="white" stop-opacity="0.68"/>
<stop offset="1" stop-color="white"/>
</linearGradient>
<linearGradient id="paint8_linear_10_3103" x1="14417.3" y1="7775.16" x2="20692.4" y2="7775.16" gradientUnits="userSpaceOnUse">
<stop stop-opacity="0"/>
<stop offset="0.99"/>
</linearGradient>
<linearGradient id="paint9_linear_10_3103" x1="18088.7" y1="12627.2" x2="22769.3" y2="12627.2" gradientUnits="userSpaceOnUse">
<stop stop-color="#E5C5D5"/>
<stop offset="0.42" stop-color="#EAD4D1"/>
<stop offset="1" stop-color="#F0E9CB"/>
</linearGradient>
<linearGradient id="paint10_linear_10_3103" x1="12077" y1="809.038" x2="12419.3" y2="1965.77" gradientUnits="userSpaceOnUse">
<stop stop-opacity="0"/>
<stop offset="0.99"/>
</linearGradient>
<linearGradient id="paint11_linear_10_3103" x1="19813.4" y1="18923.6" x2="-1321.95" y2="33032" gradientUnits="userSpaceOnUse">
<stop stop-opacity="0"/>
<stop offset="0.99"/>
</linearGradient>
<linearGradient id="paint12_linear_10_3103" x1="11245.5" y1="16477.9" x2="23534.1" y2="33249" gradientUnits="userSpaceOnUse">
<stop stop-opacity="0"/>
<stop offset="0.99"/>
</linearGradient>
<clipPath id="clip0_10_3103">
<rect width="406" height="306" fill="white"/>
</clipPath>
</defs>
</svg>
