<svg width="329" height="326" viewBox="0 0 329 326" fill="none" xmlns="http://www.w3.org/2000/svg">
<path opacity="0.18" d="M326.923 179.686C326.071 183.976 324.931 188.203 323.51 192.34C320.96 199.791 317.592 206.962 315.455 214.537C309.537 235.559 312.468 260.832 297.051 276.317C292.878 280.501 287.687 283.522 282.428 286.207C259.907 297.686 235.226 301.243 211.373 308.672C185.507 316.728 159.271 325.163 131.939 325.835C111.734 326.198 91.6763 322.332 73.0542 314.484C54.4322 306.637 37.6572 294.981 23.8067 280.266C14.5766 270.32 6.64434 258.819 2.85162 245.785C1.38387 240.611 0.494579 235.29 0.200066 229.92C-0.538341 217.423 1.45312 204.635 3.84735 192.261C8.71412 167.1 15.7849 141.099 33.2382 122.336C49.0356 105.387 73.1457 94.1986 79.9145 71.9905C82.8345 62.3129 81.8724 51.8521 84.2778 42.0179C89.3683 21.2753 109.182 6.60788 130.014 1.88655C157.839 -4.41229 184.097 7.17846 206.182 23.3115C230.091 40.6977 258.945 49.1334 282.842 66.4524C317.536 91.6478 335.37 137.955 326.923 179.686Z" fill="#7EBAFF"/>
<path opacity="0.37" d="M326.923 179.686C326.071 183.976 324.931 188.203 323.511 192.34C320.96 199.791 317.592 206.962 315.455 214.537C309.537 235.559 312.468 260.832 297.051 276.317C292.878 280.501 287.687 283.522 282.428 286.207C259.907 297.686 235.226 301.243 211.373 308.672C185.507 316.728 159.271 325.163 131.939 325.835C111.734 326.198 91.6764 322.332 73.0543 314.484C54.4323 306.637 37.6573 294.981 23.8068 280.266C14.5768 270.32 6.64447 258.819 2.85175 245.785C1.384 240.611 0.494708 235.29 0.200195 229.92C3.09527 228.704 5.89298 227.267 8.56881 225.624C28.3939 212.993 44.0571 192.138 68.0553 187.126C80.7872 184.463 94.0114 186.981 106.587 190.315C126.244 195.528 145.398 202.756 165.402 206.448C185.406 210.14 206.865 210.028 225.123 201.066C233.224 197.083 240.44 191.489 248.428 187.305C272.18 174.819 299.915 175.871 326.923 179.686Z" fill="#7EBAFF"/>
<path d="M122.004 245.315H121.813C113.982 244.655 106.329 243.491 98.4416 244.431C95.8908 244.733 93.1833 245.304 91.4044 247.15C89.6255 248.996 89.4129 252.52 91.6058 253.862L76.1664 264.099C74.3875 265.274 72.4184 266.762 72.2841 268.888C72.1163 271.472 74.7007 273.363 77.1061 274.314C87.9025 278.722 100.187 276.339 111.42 273.195C122.652 270.051 134.154 266.124 145.711 267.691C150.085 268.284 154.326 269.649 158.711 270.264C163.514 270.775 168.354 270.827 173.166 270.421C194.815 269.302 216.922 268.038 237.016 259.938C240.346 258.677 243.515 257.028 246.459 255.026C248.513 253.497 250.46 251.83 252.288 250.036L259 243.816C260.802 242.137 262.592 240.459 264.303 238.691C271.193 231.611 276.629 223.249 280.302 214.078C281.085 212.142 281.746 209.849 280.649 208.081C280.057 207.23 279.261 206.542 278.333 206.079C271.103 201.865 262.706 200.099 254.391 201.044C251.057 201.339 247.823 202.338 244.904 203.975C242.406 205.656 240.089 207.591 237.989 209.748C220.715 225.904 198.059 234.765 175.986 243.312C169.116 245.952 161.889 248.649 154.594 247.709C149.403 247.049 144.525 244.565 139.39 243.827C133.225 242.898 127.967 245.74 122.004 245.315Z" fill="url(#paint0_linear_10_3144)"/>
<path d="M245.027 142.464C243.041 142.98 240.99 143.202 238.94 143.124C237.016 142.743 235.178 142.015 233.514 140.976C229.039 138.548 224.239 136.254 219.138 135.863C214.036 135.471 208.442 137.328 205.712 141.658C204.381 143.75 203.821 146.223 202.881 148.516C201.076 152.481 198.562 156.083 195.464 159.145C184.936 170.411 171.902 179.116 161.452 190.471C160.328 191.836 159.022 193.041 157.57 194.051C156.394 194.716 155.144 195.238 153.845 195.607C137.918 200.72 121.276 203.25 104.55 203.103C108.947 206.381 114.843 206.459 120.213 207.88C128.627 210.117 135.754 215.711 143.966 218.62C151.294 221.216 159.215 221.563 166.99 221.518C177.39 221.461 187.777 220.77 198.093 219.448C199.728 219.291 201.335 218.915 202.87 218.329C204.731 217.404 206.425 216.175 207.883 214.693C216.743 206.604 225.705 198.426 232.351 188.435C234.532 185.146 236.457 181.722 238.862 178.567C242.879 173.365 248.159 169.203 251.907 163.81C253.628 161.105 255.193 158.303 256.595 155.419C257.848 153.092 261.16 149.769 261.764 147.409C263.341 141.434 248.954 141.804 245.027 142.464Z" fill="#7EBAFF"/>
<path d="M211.731 194.298C211.938 193.572 212.384 192.938 212.996 192.496C213.71 192.224 214.491 192.177 215.233 192.362C218.145 192.774 221.113 192.232 223.691 190.818C224.968 190.102 226.08 189.127 226.957 187.956C227.833 186.784 228.455 185.442 228.782 184.016C228.972 183.054 229.017 182.069 229.297 181.14C229.857 179.79 230.611 178.527 231.534 177.393C233.728 174.214 235.188 170.587 235.808 166.775C236.412 163.128 236.3 159.167 238.348 156.091C239.064 155.028 240.015 154.122 240.675 153.014C241.048 152.486 241.277 151.87 241.34 151.226C241.402 150.583 241.297 149.934 241.033 149.344C240.677 148.764 240.195 148.27 239.623 147.901C236.014 145.352 231.733 143.924 227.316 143.795C226.701 143.75 226.083 143.819 225.493 143.996C224.676 144.357 223.972 144.934 223.456 145.663C220.514 149.277 218.858 153.752 216.453 157.735C211.15 166.551 202.345 172.85 197.131 181.711C195.57 184.493 194.252 187.406 193.193 190.415C191.46 195.158 190.069 200.018 189.031 204.96C188.884 205.544 188.82 206.147 188.841 206.75C189.072 208.005 189.762 209.13 190.776 209.905C192.82 211.657 195.318 212.794 197.981 213.183C200.387 213.474 201.763 211.93 203.217 210.184C207.055 205.508 209.483 199.858 211.731 194.298Z" fill="url(#paint1_linear_10_3144)"/>
<path d="M203.978 119.181C200.297 118.622 196.963 116.776 193.45 115.568C191.464 114.706 189.238 114.571 187.163 115.187C185.812 115.798 184.758 116.919 184.234 118.306C183.709 119.693 183.757 121.231 184.366 122.582L184.444 122.761C185.394 124.189 186.682 125.361 188.192 126.174C197.118 131.835 206.678 136.428 216.677 139.857C220.073 141.073 223.564 142.005 227.115 142.642C230.186 143.179 233.321 143.247 236.412 142.844C240.594 142.163 244.594 140.64 248.171 138.369C249.82 137.566 251.147 136.224 251.93 134.565C252.758 132.193 251.46 129.642 250.028 127.583C247.894 124.353 245.122 121.593 241.883 119.472C238.717 117.703 235.331 116.36 231.814 115.478C229.207 114.695 228.155 115.355 225.907 116.216C223.658 117.078 221.006 116.776 218.758 117.246C213.924 118.219 209.002 119.931 203.978 119.181Z" fill="#7EBAFF"/>
<path d="M203.978 119.181C200.297 118.622 196.963 116.776 193.45 115.568C191.464 114.706 189.238 114.571 187.163 115.187C185.812 115.798 184.758 116.919 184.234 118.306C183.709 119.693 183.757 121.231 184.366 122.582L184.444 122.761C185.394 124.189 186.682 125.361 188.192 126.174C197.118 131.835 206.678 136.428 216.677 139.857C220.073 141.073 223.564 142.005 227.115 142.642C230.186 143.179 233.321 143.247 236.412 142.844C240.594 142.163 244.594 140.64 248.171 138.369C249.82 137.566 251.147 136.224 251.93 134.565C252.758 132.193 251.46 129.642 250.028 127.583C247.894 124.353 245.122 121.593 241.883 119.472C238.717 117.703 235.331 116.36 231.814 115.478C229.207 114.695 228.155 115.355 225.907 116.216C223.658 117.078 221.006 116.776 218.758 117.246C213.924 118.219 209.002 119.931 203.978 119.181Z" fill="url(#paint2_linear_10_3144)"/>
<path d="M223.143 124.686C225.114 125.855 226.858 127.372 228.29 129.161C229.006 130.052 229.512 131.094 229.769 132.208C230.027 133.321 230.03 134.479 229.778 135.594C229.353 137.082 228.346 138.369 228.099 139.89C227.741 142.061 228.995 144.153 230.337 145.876C231.68 147.599 233.279 149.232 233.783 151.47C234.059 152.788 233.909 154.16 233.354 155.387C232.799 156.614 231.868 157.632 230.695 158.295C227.518 160.006 223.602 158.642 220.346 157.086C217.09 155.531 213.544 153.73 210.053 154.647C208.084 155.173 206.44 156.505 204.616 157.4C201.383 158.93 197.704 159.228 194.267 158.239C190.848 157.222 187.795 155.241 185.473 152.533C183.681 150.638 182.51 148.242 182.117 145.663C181.957 144.377 182.152 143.072 182.68 141.889C183.209 140.706 184.051 139.69 185.115 138.951C187.353 137.563 190.239 137.921 192.88 138.19C195.52 138.458 198.474 138.503 200.443 136.713C202.68 134.722 202.68 131.343 203.799 128.613C204.728 126.512 206.336 124.784 208.365 123.707C210.394 122.63 212.726 122.265 214.987 122.672C216.844 123.064 218.601 123.981 220.492 124.104C222.382 124.227 224.519 123.545 226.253 124.429" fill="#473F47"/>
<path d="M115.023 253.706L115.727 254.12C116.292 254.444 116.955 254.556 117.595 254.435C118.235 254.314 118.811 253.968 119.218 253.46L205.779 145.048C206.229 144.489 206.437 143.774 206.36 143.06C206.282 142.347 205.924 141.694 205.366 141.244C204.806 140.803 204.095 140.601 203.387 140.68C202.68 140.76 202.032 141.115 201.584 141.669L114.318 249.678C113.866 250.235 113.654 250.948 113.727 251.661C113.801 252.374 114.154 253.029 114.709 253.482C114.809 253.562 114.914 253.637 115.023 253.706Z" fill="#473F47"/>
<path d="M193.674 246.758L194.882 244.968C195.252 244.129 194.211 242.428 193.361 241.992L106.318 196.815C105.857 196.578 105.324 196.52 104.822 196.652C104.32 196.784 103.885 197.097 103.6 197.531L101.608 199.578C101.488 199.766 101.405 199.976 101.366 200.196C101.327 200.416 101.331 200.641 101.379 200.86C101.427 201.078 101.517 201.284 101.644 201.468C101.772 201.651 101.935 201.807 102.123 201.928L102.291 202.028L188.74 246.657C189.769 247.161 193.215 247.798 193.674 246.758Z" fill="#473F47"/>
<path d="M220.76 148.046C222.248 151.694 227.07 152.622 229.598 155.632C231.713 158.138 231.937 161.83 230.952 164.962C228.133 173.913 219.988 178.388 212.682 183.244C207.972 186.343 203.363 190.158 201.371 195.427C200.252 198.426 199.861 202.006 197.344 203.986C195.66 205.113 193.661 205.669 191.638 205.575C190.669 205.627 189.697 205.544 188.751 205.329C187.065 204.788 185.5 203.926 184.142 202.789L178.548 198.661C176.853 197.58 175.03 196.716 173.122 196.087C171.276 195.315 169.284 194.409 168.367 192.63C167.248 190.393 168.199 187.607 169.564 185.47C174.106 178.366 182.273 174.17 186.782 167.032C187.138 166.558 187.362 165.999 187.431 165.41C187.429 164.923 187.334 164.441 187.151 163.989C185.898 159.906 185.954 151.57 191.626 150.81C192.55 150.731 193.478 150.731 194.401 150.81C198.932 150.978 203.743 149.971 207.077 146.883C207.491 146.502 207.502 146.088 207.748 145.652C207.994 145.216 208.42 144.88 208.666 144.444C209.159 143.498 209.478 142.471 209.606 141.412C209.73 139.759 209.95 138.116 210.266 136.489C211.317 132.663 216.385 128.344 219.708 132.685C223.031 137.026 218.791 143.224 220.76 148.046Z" fill="#FFB79C"/>
<path d="M198.239 159.894C198.395 159.805 198.586 159.659 198.519 159.48C198.488 159.41 198.432 159.354 198.362 159.324C198.061 159.18 197.734 159.1 197.401 159.089C197.068 159.077 196.736 159.134 196.426 159.257C195.805 159.495 195.165 159.682 194.513 159.816C193.638 159.882 192.765 159.658 192.029 159.178C191.308 158.696 190.637 158.141 190.027 157.522C190.18 158.514 190.53 159.465 191.056 160.319C191.56 161.36 192.175 166.003 194.066 164.56C194.782 164.011 195.117 162.792 195.688 162.076C196.391 161.192 197.257 160.452 198.239 159.894Z" fill="#EA967D"/>
<path d="M190.698 186.678C188.763 186.768 186.76 187.059 184.936 186.432C184.208 186.154 183.511 185.802 182.855 185.381C179.098 183.098 175.525 180.525 172.171 177.683C174.017 176.486 176.478 176.755 178.436 175.759C178.979 175.386 179.586 175.117 180.226 174.965C181.197 175.016 182.118 175.413 182.822 176.083C184.403 177.188 186.198 177.951 188.091 178.321C187.547 177.187 187.112 176.003 186.794 174.786C186.513 173.877 186.448 172.916 186.603 171.977C186.828 171.252 187.225 170.592 187.761 170.054C188.297 169.516 188.956 169.117 189.68 168.89C191.13 168.455 192.642 168.262 194.155 168.319C194.913 168.252 195.677 168.351 196.393 168.61C197.007 168.942 197.542 169.404 197.959 169.964C200.994 173.601 204.585 176.735 208.599 179.25C209.156 179.527 209.669 179.885 210.121 180.312C210.348 180.527 210.517 180.795 210.613 181.093C210.708 181.39 210.728 181.706 210.669 182.013C210.545 182.354 210.36 182.669 210.121 182.942C208.8 184.642 207.525 186.376 206.16 188.055C204.974 189.509 204.269 189.822 202.557 189.084C198.837 187.397 194.782 186.575 190.698 186.678Z" fill="#EA967D"/>
<path d="M128.046 180.793L101.429 239.329L92.1881 249.622C92.1881 249.622 88.6191 251.725 89.8722 252.978C91.1252 254.231 98.6995 254.858 99.5386 254.757C100.378 254.657 106.889 256.435 108.355 254.131C109.82 251.826 109.585 251.188 109.585 251.188C109.585 251.188 110.458 240.37 111.085 238.803C111.711 237.237 119.185 222.346 125.842 216.349C132.498 210.352 137.969 199.052 137.969 199.052C137.969 199.052 174.017 210.788 187.107 209.905C200.197 209.021 201.651 196.636 193.82 192.228C187.89 188.871 154.662 179.652 139.2 175.446C137.009 174.872 134.685 175.095 132.642 176.074C130.599 177.053 128.971 178.726 128.046 180.793Z" fill="#EA967D"/>
<path d="M209.214 140.237C209.214 140.237 206.854 147.084 209.684 147.397C212.515 147.711 221.174 136.444 221.029 134.285C220.883 132.126 209.214 140.237 209.214 140.237Z" fill="#EA967D"/>
<path d="M211.385 142.307L211.799 142.15C213.376 141.535 213.958 140.315 215.155 139.23C216.352 138.145 217.717 137.485 218.914 136.567C219.803 135.978 220.543 135.188 221.073 134.263C221.571 134.535 222.144 134.64 222.706 134.561C223.269 134.483 223.791 134.225 224.195 133.826C224.631 133.505 224.985 133.085 225.228 132.601C225.471 132.117 225.597 131.582 225.593 131.04C225.562 130.523 225.326 130.039 224.938 129.695C224.55 129.351 224.041 129.175 223.524 129.206H223.356C223.523 127.556 223.289 125.89 222.673 124.35C222.256 123.531 221.664 122.813 220.939 122.247C219.565 121.184 217.983 120.422 216.296 120.009C215.344 119.7 214.339 119.59 213.343 119.685C211.641 120.097 210.011 120.764 208.509 121.665C206.954 122.515 206.115 124.495 205.399 126.028C203.464 130.151 202.668 134.718 203.094 139.252C203.109 140.116 203.394 140.954 203.911 141.647C204.726 142.34 205.774 142.696 206.842 142.642C208.364 142.806 209.903 142.692 211.385 142.307Z" fill="#FFB79C"/>
<path d="M214.82 126.8C216.12 127.294 217.455 127.69 218.814 127.986L218.668 127.449C219.134 127.63 219.554 127.913 219.896 128.277C220.239 128.641 220.496 129.077 220.648 129.553C220.807 130.417 220.893 131.292 220.906 132.171C221.423 131.734 221.895 131.247 222.315 130.716C222.591 130.32 222.927 129.968 223.311 129.676C223.505 129.529 223.738 129.442 223.98 129.426C224.223 129.41 224.465 129.466 224.676 129.586C224.718 128.098 224.533 126.611 224.128 125.178C223.725 123.733 222.884 122.447 221.723 121.497C220.343 120.586 218.835 119.888 217.247 119.427C216.562 119.293 215.865 119.226 215.166 119.226C214.111 119.125 213.046 119.193 212.011 119.427C211.372 119.632 210.753 119.898 210.165 120.222C209.595 120.524 207.928 121.027 207.928 121.878C207.928 122.728 209.337 123.478 209.852 123.903C211.341 125.13 213.018 126.108 214.82 126.8Z" fill="#473F47"/>
<path d="M181.748 185.94C178.764 184.307 175.814 182.651 172.898 180.973C165.223 176.609 157.503 172.313 149.66 168.274C146.237 166.506 142.791 164.772 139.256 163.251C137.589 162.535 135.239 161.226 133.337 161.438H133.18C128.772 162.703 90.9682 220.343 90.9682 220.343C90.9682 220.343 73.4926 230.893 70.6508 229.003C69.7334 229.103 69.4537 228.253 68.7265 227.694C67.9993 227.134 66.8581 226.731 66.2428 227.425C65.6274 228.119 66.2428 229.293 66.914 229.965C67.9736 231.006 69.2181 231.841 70.5837 232.426C70.8921 232.523 71.1621 232.715 71.3557 232.974C71.4553 233.157 71.5127 233.36 71.5235 233.567C71.7158 234.215 72.0809 234.797 72.5797 235.253C73.0784 235.708 73.6919 236.019 74.354 236.152C75.6882 236.364 77.0476 236.364 78.3817 236.152C82.4114 235.808 86.4664 235.902 90.4759 236.431C91.464 236.621 92.4757 236.655 93.4743 236.532C94.2841 236.341 95.0396 235.967 95.6832 235.44C96.3269 234.912 96.8418 234.245 97.1887 233.489C97.8726 231.969 98.1943 230.31 98.1285 228.645C97.982 227.004 98.0953 225.35 98.4642 223.744C98.4642 223.744 128.985 197.62 130.663 189.643C131.349 185.821 132.401 182.075 133.807 178.455C138.226 182.93 142.847 187.406 147.579 191.556C151.282 194.913 155.158 198.072 159.193 201.021C160.911 202.269 162.701 203.415 164.552 204.456C166.183 205.472 168.067 206.011 169.989 206.011C175.169 206.011 179.823 209.077 184.947 209.491C186.139 209.58 187.336 209.58 188.527 209.491C189.784 209.458 191.026 209.224 192.208 208.797C195.028 207.678 196.594 204.646 197.925 201.883C198.674 200.637 199.061 199.208 199.044 197.755C198.857 196.482 198.203 195.326 197.209 194.51C196.238 193.695 195.166 193.007 194.021 192.463C189.881 190.352 185.79 188.178 181.748 185.94Z" fill="#FFB79C"/>
<path d="M177.272 253.706L177.977 254.12C178.542 254.444 179.204 254.556 179.844 254.435C180.484 254.314 181.06 253.968 181.467 253.46L268.018 145.048C268.242 144.772 268.41 144.455 268.511 144.114C268.612 143.773 268.645 143.416 268.608 143.062C268.57 142.709 268.463 142.366 268.293 142.054C268.123 141.742 267.892 141.467 267.615 141.244C267.054 140.803 266.341 140.6 265.631 140.679C264.922 140.759 264.272 141.114 263.822 141.669L176.522 249.712C176.299 249.99 176.133 250.309 176.033 250.652C175.933 250.994 175.902 251.353 175.942 251.708C175.981 252.062 176.091 252.405 176.263 252.717C176.436 253.03 176.668 253.305 176.947 253.527C177.05 253.595 177.159 253.655 177.272 253.706Z" fill="#473F47"/>
<path d="M217.773 156.437C217.088 157.895 216.182 159.239 215.088 160.42C214.62 160.93 214.077 161.363 213.477 161.707C212.87 162.003 212.237 162.243 211.586 162.423C210.736 162.703 209.897 163.038 209.046 163.329C204.128 165.033 198.882 165.576 193.719 164.918C193.545 164.915 193.377 164.859 193.237 164.757C193.096 164.655 192.991 164.512 192.936 164.347C190.888 160.062 188.819 155.553 189.053 150.81C188.204 151.24 187.515 151.93 187.084 152.779C185.975 155.043 185.317 157.502 185.149 160.017C184.971 160.818 185.025 161.652 185.306 162.423C185.617 163.199 185.864 164 186.044 164.817C186.367 165.735 186.839 166.593 187.442 167.357C188.74 168.968 191.045 170.053 192.902 169.169C193.754 170.5 194.87 171.642 196.18 172.526C198.84 174.284 201.742 175.645 204.795 176.564C207.659 177.605 210.646 177.471 213.645 178.097C215.994 178.59 218.433 179.395 220.738 178.724C221.342 178.545 222.024 177.885 221.611 177.404C221.467 177.266 221.289 177.17 221.096 177.124C219.77 176.659 218.606 175.824 217.739 174.718C215.144 171.362 215.345 165.097 216.721 161.293C218.265 157.008 221.577 153.316 221.924 148.628C221.924 148.237 221.655 146.603 220.962 147.051C220.704 147.218 220.626 148.74 220.525 149.109C220.313 149.87 220.055 150.608 219.798 151.347C219.229 153.084 218.553 154.784 217.773 156.437Z" fill="#7EBAFF"/>
<path d="M173.558 181.398C173.558 181.398 186.928 193.145 201.371 195.428L202.49 193.19C202.49 193.19 177.563 184.754 175.919 178.344L173.558 181.398Z" fill="#7EBAFF"/>
<path d="M128.046 180.794L101.429 239.329L92.1881 249.622C92.1881 249.622 88.6191 251.725 89.8722 252.978C91.1252 254.232 98.6995 254.858 99.5386 254.757C100.378 254.657 106.889 256.436 108.355 254.131C109.82 251.826 109.585 251.188 109.585 251.188C109.585 251.188 110.458 240.37 111.085 238.803C111.711 237.237 119.185 222.346 125.842 216.349C132.498 210.352 137.969 199.052 137.969 199.052C137.969 199.052 174.129 209.177 187.196 208.294C200.264 207.41 171.298 208.45 163.523 204.031C157.593 200.675 148.128 189.028 135.955 177.84C132.521 174.752 129.936 176.52 128.046 180.794Z" fill="#EA967D"/>
<path d="M151.26 205.284C147.3 205.284 143.328 204.669 139.379 205.072C135.429 205.474 131.402 207.007 129.052 210.24L132.409 212.243C138.372 215.812 144.503 219.448 151.339 220.701C153.964 221.118 156.614 221.357 159.271 221.417C173.155 222.01 187.33 222.536 200.667 218.71C199.984 218.9 195.789 215.174 195.073 214.66C193.148 213.373 191.179 212.142 189.176 210.99C185.166 208.67 181.002 206.625 176.713 204.87C173.122 203.393 169.329 201.312 165.469 202.565C160.625 204.121 156.418 205.362 151.26 205.284Z" fill="#7EBAFF"/>
<path d="M151.26 205.284C147.3 205.284 143.328 204.669 139.379 205.072C135.429 205.474 131.402 207.007 129.052 210.24L132.409 212.243C138.372 215.812 144.503 219.448 151.339 220.701C153.964 221.118 156.614 221.357 159.271 221.417C173.155 222.01 187.33 222.536 200.667 218.71C199.984 218.9 195.789 215.174 195.073 214.66C193.148 213.373 191.179 212.142 189.176 210.99C185.166 208.67 181.002 206.625 176.713 204.87C173.122 203.393 169.329 201.312 165.469 202.565C160.625 204.121 156.418 205.362 151.26 205.284Z" fill="url(#paint3_linear_10_3144)"/>
<path d="M255.89 246.758L257.099 244.968C257.468 244.129 256.427 242.428 255.577 241.992L168.523 196.815C168.061 196.58 167.529 196.524 167.028 196.656C166.527 196.788 166.091 197.099 165.805 197.531L163.847 199.545C163.608 199.93 163.53 200.393 163.631 200.835C163.731 201.277 164.002 201.662 164.384 201.905L164.54 201.995L251.035 246.624C251.986 247.161 255.42 247.799 255.89 246.758Z" fill="#473F47"/>
<path d="M204.459 132.115C205.973 132.115 207.2 130.887 207.2 129.374C207.2 127.86 205.973 126.633 204.459 126.633C202.945 126.633 201.718 127.86 201.718 129.374C201.718 130.887 202.945 132.115 204.459 132.115Z" fill="#473F47"/>
<path d="M213.766 131.317C214.009 129.822 212.994 128.414 211.5 128.172C210.005 127.929 208.597 128.944 208.355 130.438C208.112 131.932 209.127 133.34 210.621 133.583C212.115 133.826 213.523 132.811 213.766 131.317Z" fill="#473F47"/>
<path d="M192.052 165.164C192.052 169.17 190.461 173.011 187.628 175.844C184.795 178.676 180.954 180.268 176.948 180.268C172.942 180.268 169.101 178.676 166.268 175.844C163.436 173.011 161.844 169.17 161.844 165.164V164.302C162.883 165.047 164.094 165.517 165.363 165.67C166.632 165.823 167.919 165.652 169.105 165.175C169.36 165.03 169.652 164.964 169.944 164.985C170.193 165.059 170.42 165.194 170.604 165.376C171.564 166.144 172.789 166.501 174.011 166.369C175.233 166.237 176.353 165.627 177.127 164.672C177.267 164.494 177.394 164.307 177.507 164.112C179.465 165.231 181.759 166.495 183.907 165.735C184.189 165.64 184.46 165.512 184.712 165.354C185.401 164.903 186.036 164.373 186.603 163.777C186.95 164.56 187.991 164.694 188.841 164.593C189.932 164.458 190.987 164.116 191.951 163.586C192.019 164.11 192.052 164.636 192.052 165.164Z" fill="#7EBAFF"/>
<path d="M191.974 163.564C191.01 164.094 189.954 164.435 188.863 164.571C188.013 164.672 186.973 164.571 186.626 163.754C185.878 164.593 184.958 165.261 183.929 165.712C181.781 166.473 179.454 165.254 177.53 164.09C176.909 165.149 175.894 165.917 174.706 166.228C173.519 166.538 172.257 166.365 171.197 165.746C170.999 165.628 170.808 165.497 170.627 165.354C170.442 165.171 170.216 165.037 169.967 164.963C169.674 164.941 169.382 165.008 169.128 165.153C167.942 165.63 166.655 165.8 165.385 165.648C164.116 165.495 162.906 165.025 161.867 164.28L167.103 155.833H185.798L191.974 163.564Z" fill="white"/>
<path opacity="0.18" d="M167.125 155.855H172.428L169.989 164.985C169.696 164.964 169.404 165.03 169.15 165.175C167.964 165.652 166.676 165.823 165.407 165.67C164.138 165.517 162.928 165.047 161.889 164.302L167.125 155.855Z" fill="white"/>
<path opacity="0.18" d="M191.974 163.564C191.01 164.094 189.954 164.435 188.863 164.571C188.013 164.672 186.972 164.571 186.626 163.754C185.878 164.593 184.958 165.261 183.929 165.712C181.781 166.473 179.454 165.254 177.53 164.09L176.254 155.833H185.798L191.974 163.564Z" fill="white"/>
<path opacity="0.34" d="M177.53 164.112C176.909 165.171 175.894 165.94 174.706 166.25C173.519 166.561 172.257 166.387 171.197 165.768C170.999 165.65 170.808 165.52 170.627 165.376C170.442 165.194 170.216 165.059 169.967 164.985L172.406 155.855H176.254L177.53 164.112Z" fill="#7EBAFF"/>
<path d="M176.578 157.165C181.787 157.165 186.01 156.609 186.01 155.923C186.01 155.237 181.787 154.681 176.578 154.681C171.37 154.681 167.147 155.237 167.147 155.923C167.147 156.609 171.37 157.165 176.578 157.165Z" fill="#7EBAFF"/>
<path d="M176.579 156.941C180.848 156.941 184.309 156.485 184.309 155.923C184.309 155.36 180.848 154.905 176.579 154.905C172.309 154.905 168.848 155.36 168.848 155.923C168.848 156.485 172.309 156.941 176.579 156.941Z" fill="url(#paint4_linear_10_3144)"/>
<path opacity="0.13" d="M183.146 156.851L186.626 163.81C186.626 163.81 187.499 165.522 190.665 164.202L184.758 156.572L183.146 156.851Z" fill="#7EBAFF"/>
<path d="M174.833 156.919L172.417 147.946L166.398 145.619L165.928 146.346L171.589 148.583L173.927 156.885L174.833 156.919Z" fill="#7EBAFF"/>
<path d="M192.052 165.164C192.052 169.17 190.46 173.011 187.628 175.844C184.795 178.676 180.954 180.268 176.948 180.268C183.851 179.775 184.779 165.354 184.779 165.354C185.468 164.903 186.102 164.373 186.67 163.777C187.017 164.56 188.057 164.694 188.908 164.593C189.999 164.458 191.054 164.116 192.018 163.586C192.018 164.101 192.052 164.683 192.052 165.164Z" fill="url(#paint5_linear_10_3144)"/>
<path d="M180.226 153.092L179.767 154.233L178.682 156.918H178.335L179.51 153.942L179.957 152.824L180.013 152.656L180.091 152.812L180.226 153.092Z" fill="white"/>
<path d="M180.215 153.092L179.756 154.211C179.687 154.157 179.624 154.097 179.566 154.032L179.499 153.92L179.946 152.801H180.08L180.215 153.092Z" fill="url(#paint6_linear_10_3144)"/>
<path d="M183.84 153.596C183.84 153.619 183.834 153.641 183.822 153.661C183.81 153.681 183.793 153.697 183.773 153.708C183.582 153.876 183.358 154.003 183.115 154.08C182.872 154.157 182.616 154.182 182.363 154.155C182.193 154.15 182.027 154.102 181.881 154.016C181.734 153.93 181.611 153.808 181.524 153.663C181.374 153.772 181.2 153.843 181.016 153.868C180.833 153.894 180.646 153.873 180.472 153.808C180.3 153.746 180.143 153.647 180.013 153.517C179.884 153.388 179.784 153.231 179.723 153.059C179.316 153.182 178.886 153.205 178.469 153.126C178.262 153.078 178.08 152.956 177.956 152.783C177.833 152.61 177.776 152.398 177.798 152.186C177.667 152.213 177.531 152.208 177.403 152.171C177.274 152.134 177.157 152.066 177.06 151.973C176.87 151.772 176.892 151.571 176.825 151.325C176.83 151.312 176.833 151.299 176.833 151.285C176.833 151.272 176.83 151.259 176.825 151.246C176.721 151.073 176.645 150.884 176.601 150.687C176.6 150.449 176.646 150.213 176.735 149.993C178.448 150.191 180.175 150.221 181.893 150.083H182.038C182.06 150.094 182.079 150.11 182.095 150.129C182.11 150.149 182.122 150.171 182.128 150.195L182.631 151.179C183.023 151.94 183.415 152.701 183.817 153.417C183.829 153.495 183.907 153.562 183.84 153.596Z" fill="white"/>
<path d="M181.893 150.138L177.25 151.19L176.802 151.302C176.698 151.129 176.623 150.94 176.579 150.742C176.578 150.505 176.623 150.269 176.713 150.049C178.425 150.246 180.152 150.276 181.871 150.138H181.893Z" fill="#7EBAFF"/>
<path d="M177.798 152.186L181.893 150.138H182.039L179.723 153.092C179.723 153.092 177.765 153.607 177.798 152.186Z" fill="#7EBAFF"/>
<path d="M181.523 153.663L182.038 150.105L183.839 153.596C183.535 153.9 183.125 154.076 182.695 154.089C182.264 154.101 181.845 153.949 181.523 153.663Z" fill="#7EBAFF"/>
<path d="M230.796 182.64C230.416 184.821 229.845 187.182 228.111 188.569C226.12 190.169 223.3 189.99 220.76 189.688C217.088 189.374 213.435 188.859 209.819 188.144C204.941 187.081 200.421 184.788 195.722 182.998C194.737 182.592 193.723 182.26 192.69 182.002C188.215 180.95 183.258 182.293 178.94 180.626C178.284 180.423 177.677 180.087 177.157 179.638C176.637 179.19 176.216 178.638 175.919 178.019C175.805 177.536 175.62 177.072 175.371 176.643C174.811 175.871 173.458 175.524 173.57 174.562C173.609 174.331 173.72 174.118 173.886 173.954C174.053 173.789 174.267 173.681 174.498 173.645C174.962 173.573 175.435 173.604 175.885 173.734L181.726 174.853C182.477 175.054 183.262 175.096 184.03 174.976C184.411 174.905 184.76 174.718 185.029 174.439C185.298 174.16 185.473 173.804 185.529 173.421C185.529 172.962 185.35 172.526 185.339 172.056C185.328 171.586 185.697 171.071 186.145 171.183C186.329 171.244 186.489 171.362 186.604 171.519C187.213 172.22 187.867 172.881 188.561 173.499C190.573 175.098 192.969 176.139 195.509 176.52C199.861 177.303 204.37 176.956 208.767 177.359L222.517 178.623C222.73 178.674 222.95 178.678 223.165 178.635C223.379 178.593 223.582 178.505 223.759 178.377C223.992 178.092 224.105 177.726 224.072 177.359C224.139 174.003 222.707 170.892 221.834 167.693C220.962 164.493 220.637 160.846 222.741 158.149C224.363 156.068 228.402 153.92 230.572 156.337C232.743 158.753 232.016 165.802 232.016 168.744C232.029 173.403 231.621 178.054 230.796 182.64Z" fill="#FFB79C"/>
<path d="M246.559 123.287C244.084 121.485 241.235 120.264 238.223 119.714C235.211 119.164 232.114 119.299 229.162 120.11C225.336 121.229 221.901 123.243 217.974 124.194C214.271 125.1 210.075 123.422 206.574 122.269C201.982 120.912 197.538 119.102 193.305 116.865C191.604 115.881 189.848 114.717 187.878 114.796C194.144 114.549 200.446 114.501 206.786 114.65C207.696 114.713 208.609 114.611 209.482 114.348C209.804 114.241 210.101 114.07 210.355 113.845C211.328 113.006 211.474 111.607 211.989 110.399C212.254 109.733 212.611 109.108 213.051 108.542C214.302 106.998 216.023 105.906 217.952 105.431C220.6 104.867 223.358 105.133 225.85 106.192C228.112 107.01 230.066 108.506 231.444 110.477C231.734 110.89 231.97 111.337 232.149 111.808C232.664 113.039 232.809 115.288 233.951 116.116C234.182 116.177 234.41 116.252 234.633 116.34C236.904 116.944 242.599 118.655 246.559 123.287Z" fill="#7EBAFF"/>
<path opacity="0.51" d="M234.253 116.261C231.996 116.933 229.648 117.247 227.294 117.19C222.842 117.494 218.37 117.242 213.98 116.44C212.615 116.138 209.818 115.814 209.505 114.359C209.827 114.252 210.124 114.081 210.378 113.856C211.351 113.017 211.496 111.618 212.011 110.41C212.293 109.741 212.67 109.115 213.13 108.553C214.584 108.9 215.972 109.459 217.404 109.851C221.219 110.88 225.235 110.734 229.196 110.578L231.568 110.488C231.857 110.901 232.094 111.348 232.272 111.82C232.787 113.05 232.933 115.299 234.074 116.127C234.129 116.177 234.189 116.222 234.253 116.261Z" fill="white"/>
<defs>
<linearGradient id="paint0_linear_10_3144" x1="132.789" y1="-5.0835" x2="250.307" y2="648.921" gradientUnits="userSpaceOnUse">
<stop offset="0.01"/>
<stop offset="0.13" stop-opacity="0.69"/>
<stop offset="0.25" stop-opacity="0.32"/>
<stop offset="1" stop-opacity="0"/>
</linearGradient>
<linearGradient id="paint1_linear_10_3144" x1="11015.9" y1="12551.4" x2="19035" y2="9632.28" gradientUnits="userSpaceOnUse">
<stop offset="0.01"/>
<stop offset="0.13" stop-opacity="0.69"/>
<stop offset="0.25" stop-opacity="0.32"/>
<stop offset="1" stop-opacity="0"/>
</linearGradient>
<linearGradient id="paint2_linear_10_3144" x1="17710.6" y1="6789.7" x2="17753.5" y2="3106.46" gradientUnits="userSpaceOnUse">
<stop offset="0.01"/>
<stop offset="0.13" stop-opacity="0.69"/>
<stop offset="0.25" stop-opacity="0.32"/>
<stop offset="1" stop-opacity="0"/>
</linearGradient>
<linearGradient id="paint3_linear_10_3144" x1="12708.8" y1="3154.58" x2="14149.9" y2="-937.146" gradientUnits="userSpaceOnUse">
<stop offset="0.01"/>
<stop offset="0.13" stop-opacity="0.69"/>
<stop offset="0.25" stop-opacity="0.32"/>
<stop offset="1" stop-opacity="0"/>
</linearGradient>
<linearGradient id="paint4_linear_10_3144" x1="3503.58" y1="-169.25" x2="3503.86" y2="-127.906" gradientUnits="userSpaceOnUse">
<stop offset="0.01"/>
<stop offset="0.13" stop-opacity="0.69"/>
<stop offset="0.25" stop-opacity="0.32"/>
<stop offset="1" stop-opacity="0"/>
</linearGradient>
<linearGradient id="paint5_linear_10_3144" x1="4007.12" y1="2787.05" x2="3035.03" y2="2930.63" gradientUnits="userSpaceOnUse">
<stop offset="0.01"/>
<stop offset="0.13" stop-opacity="0.69"/>
<stop offset="0.25" stop-opacity="0.32"/>
<stop offset="1" stop-opacity="0"/>
</linearGradient>
<linearGradient id="paint6_linear_10_3144" x1="339.61" y1="406.064" x2="338.05" y2="400.088" gradientUnits="userSpaceOnUse">
<stop offset="0.01"/>
<stop offset="0.13" stop-opacity="0.69"/>
<stop offset="0.25" stop-opacity="0.32"/>
<stop offset="1" stop-opacity="0"/>
</linearGradient>
</defs>
</svg>
