<svg width="402" height="306" viewBox="0 0 402 306" fill="none" xmlns="http://www.w3.org/2000/svg">
<g clip-path="url(#clip0_10_3199)">
<path opacity="0.18" d="M371.307 258.305C358.199 287.748 326.112 308.122 293.967 305.826C274.591 304.44 256.638 295.692 238.26 289.356C201.823 276.887 163.254 279.542 126.091 276.364C113.033 275.408 100.092 273.241 87.435 269.892C85.8203 269.44 84.2056 268.962 82.591 268.458C50.5426 258.373 23.7742 233.823 28.1533 197.619C30.1781 180.839 46.367 173.108 53.3424 159.167C61.7227 142.435 58.0606 121.266 59.8916 103.266C60.3745 98.6503 61.2036 94.0776 62.3718 89.5863C63.7641 84.1504 65.6213 78.8443 67.9231 73.7268C68.02 73.4942 68.1169 73.2714 68.2234 73.0486C82.155 42.5503 111.055 18.5528 143.413 7.89583C185.867 -6.09385 232.767 -0.116266 274.872 14.881C277.771 15.9079 280.678 17.0027 283.591 18.1653C284.298 18.4462 284.996 18.7272 285.693 19.0275C287.146 19.6282 288.59 20.245 290.024 20.8779C308.983 29.2969 326.558 41.0583 336.643 58.8458C346.99 77.0982 347.969 99.4197 344.084 120.036C342.669 127.535 340.654 135.217 342.282 142.668C344.394 152.356 352.154 159.602 358.393 167.314C366.78 177.76 372.737 189.942 375.832 202.976C380.143 221.364 378.99 241.041 371.307 258.305Z" fill="#7EBAFF"/>
<path opacity="0.37" d="M289.975 20.8876C274.6 24.1622 258.343 24.1041 242.881 27.524C224.793 31.5349 208.004 40.2833 192.948 51.0662C190.331 53.092 187.54 54.8817 184.607 56.414C179.763 58.7101 174.396 59.3786 169.106 60.2215C156.22 62.2788 143.547 65.502 131.245 69.8515C121.363 73.3489 111.394 77.602 100.911 77.3889C94.4587 77.2436 88.1808 75.4513 81.7285 75.3447C77.1557 75.2866 71.9628 76.6332 67.9229 73.7268C68.0197 73.4942 68.1166 73.2714 68.2232 73.0486C82.1547 42.5503 111.054 18.5528 143.413 7.89583C185.866 -6.09385 232.767 -0.116266 274.871 14.881C277.771 15.9079 280.678 17.0027 283.591 18.1653C284.298 18.4462 284.995 18.7272 285.693 19.0275C287.114 19.6346 288.541 20.2547 289.975 20.8876Z" fill="#7EBAFF"/>
<path d="M167.12 242.843C166.258 248.036 164.872 253.607 160.784 256.939C157.044 259.991 151.852 260.466 147.027 260.321C143.781 260.224 140.381 259.846 137.755 257.947C134.955 255.922 133.531 252.522 131.206 249.964C128.881 247.406 124.531 245.856 122.128 248.336C126.94 256.868 128.356 266.902 126.091 276.432C113.033 275.476 100.092 273.309 87.4351 269.96C84.7713 268.754 82.3386 267.092 80.2465 265.048C74.5596 259.294 73.1257 250.71 69.7252 243.376C66.1406 235.625 60.2986 229.241 55.4836 222.207C50.6686 215.174 46.7643 206.861 47.8978 198.423C48.8666 191.351 53.1972 185.218 57.925 179.87C62.6528 174.522 68.1848 169.581 75.1215 168.942C83.3855 168.186 89.8184 170.88 97.9177 167.343C102.51 165.319 106.172 161.773 110.667 159.68C121.692 154.545 136.079 162.868 143.898 170.599C151.59 178.184 155.872 188.473 159.961 198.471C163.836 207.927 167.76 217.606 168.273 227.817C168.436 232.853 168.05 237.891 167.12 242.843Z" fill="url(#paint0_linear_10_3199)"/>
<path d="M135.275 230.956C135.275 230.956 124.831 211.356 119.212 205.573C113.593 199.789 99.4484 174.406 104.108 162.189C108.768 149.972 131.584 146.93 148.771 168.138C165.957 189.345 160.503 214.243 168.05 225.172C175.597 236.1 173.049 258.334 153.053 257.23C140.255 256.523 135.275 230.956 135.275 230.956Z" fill="#473F47"/>
<path d="M136.68 230.82C136.68 230.82 126.236 211.221 120.617 205.437C114.998 199.653 100.853 174.27 105.513 162.054C110.173 149.837 132.979 146.795 150.175 168.002C167.372 189.209 161.898 214.108 169.455 225.036C177.012 235.964 174.454 258.208 154.458 257.104C141.65 256.387 136.68 230.82 136.68 230.82Z" fill="#7EBAFF"/>
<path d="M136.68 230.82C136.68 230.82 126.236 211.221 120.617 205.437C114.998 199.653 100.853 174.27 105.513 162.054C110.173 149.837 132.979 146.795 150.175 168.002C167.372 189.209 161.898 214.108 169.455 225.036C177.012 235.964 174.454 258.208 154.458 257.104C141.65 256.387 136.68 230.82 136.68 230.82Z" fill="url(#paint1_linear_10_3199)"/>
<path d="M211.569 94.256L169.658 127.283C165.87 130.267 162.014 133.319 159.35 137.339C156.935 141.247 155.361 145.616 154.729 150.166C152.743 161.792 154.612 174.697 162.624 183.329C166.5 187.475 171.509 190.382 175.597 194.305C188.25 206.416 190.604 226.548 203.431 238.464C210.59 245.12 220.288 248.423 229.938 249.964C236.158 250.933 242.862 251.204 248.432 248.268C253.412 245.633 256.842 240.779 259.361 235.742C263.023 228.398 265.173 220.367 266.704 212.316C268.797 201.543 269.969 190.624 271.151 179.725L275.511 139.277C276.082 133.977 276.654 128.62 276.199 123.33C275.812 118.902 274.716 114.564 272.953 110.484C269.365 102.162 263.032 95.3233 255.011 91.1074C242.571 84.6357 222.604 85.5561 211.569 94.256Z" fill="url(#paint2_linear_10_3199)"/>
<path d="M340.421 155.892C342.146 157.946 343.938 159.961 345.517 162.131C355.38 175.695 355.293 195.739 345.314 209.254C341.964 213.536 338.109 217.397 333.833 220.754C329.28 224.532 324.523 228.156 319.156 230.646C303.19 238.047 283.794 234.627 267.867 242.136C260.814 245.468 254.478 250.913 246.727 251.824C241.496 252.415 236.283 250.855 231.352 248.917C219.843 244.587 208.556 238.435 200.118 229.328C190.923 219.417 187.397 205.854 179.617 194.916C174.095 187.165 165.231 180.665 164.204 170.802C163.051 159.816 163.409 149.488 169.048 139.664C176.265 127.07 186.099 116.083 197.143 106.725C207.626 97.8406 220.569 87.4258 233.755 83.0468C252.734 76.7301 274.087 76.7979 292.397 84.8585C310.708 92.919 325.54 109.292 330.181 128.755C331.789 135.537 332.235 142.803 335.538 148.984C336.918 151.453 338.555 153.768 340.421 155.892Z" fill="#7EBAFF"/>
<path d="M345.353 209.254C342.003 213.536 338.148 217.397 333.872 220.754C329.319 224.532 324.562 228.156 319.195 230.646C318.488 230.975 317.771 231.285 317.044 231.566C301.543 237.776 283.136 234.967 267.906 242.146C260.853 245.469 254.517 250.923 246.757 251.834C241.535 252.425 236.313 250.865 231.391 248.976C219.882 244.635 208.595 238.493 200.157 229.386C190.963 219.475 187.436 205.902 179.657 194.964C175.665 189.345 169.968 184.404 166.665 178.378C165.358 176.057 164.531 173.497 164.233 170.85C163.09 159.874 163.439 149.537 169.077 139.713C176.295 127.118 186.119 116.132 197.173 106.773C207.655 97.8891 220.599 87.4743 233.784 83.0856C252.763 76.7689 274.116 76.8368 292.427 84.8973C310.737 92.9578 325.57 109.331 330.21 128.804C331.819 135.586 332.264 142.852 335.558 149.023C336.959 151.495 338.615 153.813 340.499 155.94C342.224 157.994 344.016 160.009 345.595 162.18C355.419 175.733 355.332 195.739 345.353 209.254Z" fill="url(#paint3_linear_10_3199)"/>
<path d="M258.305 211.637C283.939 211.637 304.72 190.856 304.72 165.222C304.72 139.587 283.939 118.806 258.305 118.806C232.67 118.806 211.889 139.587 211.889 165.222C211.889 190.856 232.67 211.637 258.305 211.637Z" fill="url(#paint4_linear_10_3199)"/>
<path d="M258.305 201.019C278.075 201.019 294.102 184.992 294.102 165.222C294.102 145.451 278.075 129.424 258.305 129.424C238.534 129.424 222.507 145.451 222.507 165.222C222.507 184.992 238.534 201.019 258.305 201.019Z" fill="#7EBAFF"/>
<path d="M317.044 231.566C301.543 237.776 283.135 234.967 267.906 242.146C260.853 245.469 254.517 250.923 246.756 251.834C241.535 252.425 236.313 250.865 231.391 248.976C219.882 244.635 208.595 238.493 200.156 229.386C190.962 219.475 187.436 205.902 179.656 194.964C175.665 189.345 169.968 184.404 166.665 178.378C166.665 178.378 182.611 188.696 198.975 182.97C215.338 177.245 212.179 170.531 212.179 170.531L215.89 169.562C215.89 169.562 234.433 155.107 252.443 157.83C270.454 160.552 266.627 178.834 269.882 183.988C273.137 189.142 291.196 197.929 291.196 197.929C291.196 197.929 284.695 227.904 304.701 229.813C308.843 230.18 312.963 230.766 317.044 231.566Z" fill="url(#paint5_linear_10_3199)"/>
<path d="M275.133 188.899C263.42 192.145 250.603 187.533 241.312 179.686C239.251 178.05 237.474 176.086 236.051 173.873C232.68 168.176 233.426 160.862 235.809 154.681C234.705 156.722 233.475 158.692 232.128 160.581C231.645 159.532 231.277 158.434 231.033 157.306C230.269 158.067 229.617 158.931 229.095 159.874C227.942 158.827 228.514 156.967 229.192 155.533C230.936 151.936 232.854 148.435 234.947 145.031C231.565 147.899 228.56 151.184 226.005 154.807C223.455 158.466 222.101 162.825 222.129 167.285C222.265 170.938 223.602 174.425 224.435 177.942C225.036 180.48 225.404 183.087 226.189 185.567C227.069 188.095 228.257 190.506 229.725 192.746C232.748 197.59 236.633 202.279 242 204.236C245.991 205.699 250.361 205.495 254.594 205.592C260.407 205.708 266.346 206.425 272.033 205.195C278.979 203.713 285.073 199.382 289.927 194.238C291.763 192.438 293.21 190.282 294.18 187.902C294.841 185.702 295.167 183.416 295.149 181.12C295.343 176.072 295.478 170.754 293.134 166.268C291.927 173.081 288.613 179.343 283.659 184.172C284.802 182.15 285.381 179.858 285.335 177.535C284.013 179.776 282.218 181.7 280.074 183.174L280.82 177.186C278.925 179.966 276.448 182.301 273.56 184.027C270.673 185.754 267.444 186.831 264.098 187.185C265.75 187.912 267.572 188.164 269.359 187.911C266.02 189.165 262.457 189.709 258.896 189.51" fill="url(#paint6_linear_10_3199)"/>
<path d="M211.027 142.212C209.75 145.601 208.749 149.087 208.033 152.637C207.513 156.1 207.264 159.598 207.287 163.1C207.229 166.898 207.219 170.686 207.239 174.483C207.166 176.775 207.358 179.066 207.81 181.314C208.672 184.296 209.978 187.131 211.685 189.723C208.44 185.044 205.107 180.132 204.322 174.493C204.025 171.765 204.087 169.009 204.506 166.297C203.548 166.669 202.682 167.244 201.968 167.983L201.455 166.491C200.486 166.704 200.292 167.934 200.282 168.913L200.098 180.248C198.65 168.661 200.064 156.895 204.216 145.981L202.278 160.368L202.947 159.137L204.39 161.356C205.126 157.436 205.998 153.538 207.006 149.662C207.91 145.754 209.273 141.965 211.065 138.376C212.644 135.469 214.863 132.359 217.74 130.625C214.741 133.993 212.457 137.935 211.027 142.212Z" fill="url(#paint7_linear_10_3199)"/>
<path d="M300.748 200.874C291.06 212.442 276.886 220.522 261.831 221.597C272.174 223.256 282.776 221.497 292.029 216.588L284.53 223.225C291.298 222.174 297.518 218.882 302.192 213.876L294.509 216.365C294.687 214.672 295.384 213.075 296.505 211.793C296.119 211.629 295.69 211.596 295.283 211.697C294.875 211.798 294.512 212.029 294.248 212.354C307.104 194.46 313.343 174.232 315.775 152.55C319.466 159.951 316.327 168.428 314.04 175.888C311.319 185.019 306.799 193.514 300.748 200.874Z" fill="url(#paint8_linear_10_3199)"/>
<path d="M121.469 173.776L126.827 180.413C126.827 180.413 121.014 203.344 128.823 217.082C136.631 230.82 144.392 235.247 144.392 235.247C144.392 235.247 124.473 209.758 132.931 186.623C132.931 186.623 149.4 182.079 160.561 194.073C171.722 206.067 162.218 229.144 162.218 229.144C162.218 229.144 184.617 195.545 155.746 181.856C155.746 181.856 145.457 176.402 130.034 178.775L124.037 171.635C124.037 171.635 121.179 169.494 121.469 173.776Z" fill="#7EBAFF"/>
<path d="M112.954 237.011C112.954 237.011 105.91 215.949 105.581 207.888C105.252 199.828 96.5517 172.11 84.4803 167.091C72.4089 162.073 54.5052 176.528 58.0704 203.596C61.6357 230.665 83.4727 243.831 86.166 256.823C88.8594 269.815 106.802 283.272 119.755 267.993C128.087 258.218 112.954 237.011 112.954 237.011Z" fill="#473F47"/>
<path d="M114.843 236.924C114.843 236.924 107.809 215.862 107.48 207.801C107.15 199.74 98.4502 172.013 86.3788 166.995C74.3073 161.976 56.4036 176.421 59.9689 203.548C63.5341 230.675 85.3712 243.783 88.0645 256.775C90.7578 269.766 108.7 283.223 121.653 267.955C129.985 258.121 114.843 236.924 114.843 236.924Z" fill="#7EBAFF"/>
<path d="M114.843 236.924C114.843 236.924 107.809 215.862 107.48 207.801C107.15 199.74 98.4502 172.013 86.3788 166.995C74.3073 161.976 56.4036 176.421 59.9689 203.548C63.5341 230.675 85.3712 243.783 88.0645 256.775C90.7578 269.766 108.7 283.223 121.653 267.955C129.985 258.121 114.843 236.924 114.843 236.924Z" fill="url(#paint9_linear_10_3199)"/>
<path d="M81.128 190.13C82.2809 191.612 83.7051 193.588 85.3618 194.528C87.0184 195.468 88.772 195.1 90.4868 195.148C93.5898 195.373 96.5459 196.558 98.9445 198.539C101.315 200.52 103.474 202.741 105.387 205.166C107.407 207.364 109.151 209.801 110.58 212.422C111.357 214.034 111.955 215.727 112.363 217.47C114.649 226.596 113.545 236.178 112.421 245.517C112.237 240.75 111.907 235.984 111.452 231.237C111.123 227.72 110.687 224.261 109.078 221.083C104.664 212.416 97.3622 205.563 88.4329 201.707C71.8177 217.702 83.1529 238.522 83.802 240.46C84.4335 242.138 85.2698 243.733 86.2918 245.207C88.3458 248.506 90.69 251.615 93.2964 254.498C89.4211 250.216 84.8967 246.621 81.0408 242.339C75.7511 236.449 71.7984 228.989 71.6434 221.025C71.6017 219.216 71.7905 217.41 72.2053 215.648C72.9892 212.944 74.0917 210.342 75.4895 207.898C77.2819 204.439 80.043 200.651 81.1765 196.95C81.9709 194.334 79.5295 193.23 77.8728 191.602C77.1787 191.074 76.7111 190.302 76.5649 189.442C76.5711 189.193 76.6294 188.948 76.7362 188.722C76.843 188.497 76.9958 188.297 77.1847 188.134C77.3737 187.972 77.5947 187.851 77.8334 187.779C78.072 187.707 78.3231 187.686 78.5704 187.717C79.394 187.993 80.0849 188.567 80.508 189.326C80.7211 189.616 80.9246 189.878 81.128 190.13Z" fill="#7EBAFF"/>
<path d="M114.455 67.4585C113.631 66.3226 113.135 64.982 113.021 63.5832C112.991 61.0965 113.449 58.6279 114.368 56.3171C115.366 59.9308 115.715 64.0386 114.455 67.4585Z" fill="white"/>
<path d="M285.645 19.0372C284.556 20.0044 283.712 21.2164 283.184 22.5734C282.816 23.6876 282.816 24.947 282.157 25.9158C281.546 26.6765 280.728 27.2449 279.803 27.5531C270.909 31.1959 260.727 28.086 251.223 29.4908C237.95 31.4962 227.719 41.9497 219.135 52.2676C213.7 58.7877 207.151 66.141 198.674 65.7729C195.196 65.6275 191.892 64.1259 188.414 64.0193C177.389 63.6899 169.358 76.9723 158.381 76.3135C152.433 75.9648 146.397 71.4695 141.01 74.0562C139.073 75.025 137.581 76.7592 136.079 78.3674C124.085 91.1655 104.108 95.8061 87.7351 89.5766C81.3506 87.1546 77.0782 85.7014 70.2965 87.2708C68.3588 87.7262 65.2102 89.2085 62.4297 89.5572C63.8542 83.8976 65.7801 78.3762 68.1844 73.0583C69.7442 73.0002 71.3912 73.0583 73.106 73.1746C77.4076 73.3974 82.7942 72.2736 83.9083 68.1174C85.8699 70.6786 88.6751 72.4623 91.8266 73.1522C94.978 73.8421 98.2719 73.3935 101.124 71.8861C104.37 75.2963 110.619 73.7268 113.234 69.8516C113.738 69.1003 114.148 68.2902 114.455 67.4392C115.082 68.3178 115.97 68.9756 116.993 69.3187C118.492 69.6851 120.063 69.6382 121.537 69.1831C125.612 68.2352 129.512 66.6529 133.095 64.494C135.701 62.9052 138.191 60.9966 141.136 60.2215C144.081 59.4465 147.734 60.2215 149.206 62.8664C151.144 59.4659 153.837 55.5809 157.722 55.8328C161.346 56.0653 164.301 59.9793 167.856 59.2527C173.155 58.158 172.594 48.6733 177.825 47.2976C181.245 46.3966 185.769 49.5161 187.93 46.7356C189.015 45.3502 188.521 43.2189 187.329 41.8916C186.024 40.7092 184.462 39.8468 182.766 39.3727L163.487 32.3584C152.83 28.4832 141.204 23.8329 135.798 13.8347L201.338 36.5728C203.037 37.3142 204.871 37.6967 206.725 37.6966C208.613 37.4274 210.407 36.7061 211.956 35.5943C222.352 29.0645 230.122 18.4075 241.602 14.1254C237.94 25.2183 223.592 29.297 218.302 39.7117C229.599 31.5059 241.806 22.9803 255.757 22.4572C260.949 22.2634 266.171 23.2128 271.335 22.6606C275.71 22.1743 279.902 20.6352 283.552 18.175C284.23 18.5044 284.947 18.7369 285.645 19.0372Z" fill="white"/>
</g>
<defs>
<linearGradient id="paint0_linear_10_3199" x1="118.66" y1="80.5086" x2="93.3352" y2="404.093" gradientUnits="userSpaceOnUse">
<stop offset="0.01"/>
<stop offset="0.13" stop-opacity="0.69"/>
<stop offset="0.25" stop-opacity="0.32"/>
<stop offset="1" stop-opacity="0"/>
</linearGradient>
<linearGradient id="paint1_linear_10_3199" x1="17459.8" y1="14151.5" x2="-10030.3" y2="29724.2" gradientUnits="userSpaceOnUse">
<stop offset="0.01"/>
<stop offset="0.13" stop-opacity="0.69"/>
<stop offset="0.25" stop-opacity="0.32"/>
<stop offset="1" stop-opacity="0"/>
</linearGradient>
<linearGradient id="paint2_linear_10_3199" x1="60542.1" y1="-4635.41" x2="-47771.8" y2="65145.9" gradientUnits="userSpaceOnUse">
<stop offset="0.01"/>
<stop offset="0.13" stop-opacity="0.69"/>
<stop offset="0.25" stop-opacity="0.32"/>
<stop offset="1" stop-opacity="0"/>
</linearGradient>
<linearGradient id="paint3_linear_10_3199" x1="119524" y1="72136.9" x2="-16385.5" y2="-20552.9" gradientUnits="userSpaceOnUse">
<stop offset="0.01"/>
<stop offset="0.13" stop-opacity="0.69"/>
<stop offset="0.25" stop-opacity="0.32"/>
<stop offset="1" stop-opacity="0"/>
</linearGradient>
<linearGradient id="paint4_linear_10_3199" x1="15614.5" y1="9593.22" x2="38301.7" y2="31131.1" gradientUnits="userSpaceOnUse">
<stop offset="0.01"/>
<stop offset="0.13" stop-opacity="0.69"/>
<stop offset="0.25" stop-opacity="0.32"/>
<stop offset="1" stop-opacity="0"/>
</linearGradient>
<linearGradient id="paint5_linear_10_3199" x1="39456.3" y1="31607.3" x2="37410.9" y2="3295.14" gradientUnits="userSpaceOnUse">
<stop offset="0.01"/>
<stop offset="0.13" stop-opacity="0.69"/>
<stop offset="0.25" stop-opacity="0.32"/>
<stop offset="1" stop-opacity="0"/>
</linearGradient>
<linearGradient id="paint6_linear_10_3199" x1="21561.3" y1="9045.97" x2="17282.7" y2="19298.8" gradientUnits="userSpaceOnUse">
<stop offset="0.01"/>
<stop offset="0.13" stop-opacity="0.69"/>
<stop offset="0.25" stop-opacity="0.32"/>
<stop offset="1" stop-opacity="0"/>
</linearGradient>
<linearGradient id="paint7_linear_10_3199" x1="5914.7" y1="5642.07" x2="-1843.6" y2="7924.97" gradientUnits="userSpaceOnUse">
<stop offset="0.01"/>
<stop offset="0.13" stop-opacity="0.69"/>
<stop offset="0.25" stop-opacity="0.32"/>
<stop offset="1" stop-opacity="0"/>
</linearGradient>
<linearGradient id="paint8_linear_10_3199" x1="14762.8" y1="12983.6" x2="21945.9" y2="17318.4" gradientUnits="userSpaceOnUse">
<stop offset="0.01"/>
<stop offset="0.13" stop-opacity="0.69"/>
<stop offset="0.25" stop-opacity="0.32"/>
<stop offset="1" stop-opacity="0"/>
</linearGradient>
<linearGradient id="paint9_linear_10_3199" x1="-162803" y1="52065.5" x2="-134040" y2="41892.8" gradientUnits="userSpaceOnUse">
<stop offset="0.01"/>
<stop offset="0.13" stop-opacity="0.69"/>
<stop offset="0.25" stop-opacity="0.32"/>
<stop offset="1" stop-opacity="0"/>
</linearGradient>
<clipPath id="clip0_10_3199">
<rect width="406" height="306" fill="white"/>
</clipPath>
</defs>
</svg>
